<svg width="176" height="220" viewBox="0 0 176 220" fill="none" xmlns="http://www.w3.org/2000/svg">
<path d="M176 44C176 20.152 135.707 0 88 0C40.293 0 0 20.152 0 44V66C0 89.848 40.293 110 88 110C135.707 110 176 89.848 176 66V44ZM88 187C40.293 187 0 166.848 0 143V176C0 199.848 40.293 220 88 220C135.707 220 176 199.848 176 176V143C176 166.848 135.707 187 88 187Z" fill="#053651"/>
<path d="M176 88C176 111.848 135.707 132 88 132C40.293 132 0 111.848 0 88V121C0 144.848 40.293 165 88 165C135.707 165 176 144.848 176 121V88Z" fill="#053651"/>
</svg>
