<svg width="104" height="104" viewBox="0 0 104 104" fill="none" xmlns="http://www.w3.org/2000/svg">
<path d="M0 0H103.5V103.5H0V0ZM95.0187 78.8153C94.2655 74.0945 91.1893 70.127 82.0698 66.424C78.8958 64.9348 75.371 63.9055 74.313 61.5135C73.922 60.0875 73.8645 59.317 74.1175 58.4717C74.7673 55.6887 78.0678 54.855 80.6553 55.6255C82.34 56.143 83.8925 57.4368 84.8643 59.5125C89.3205 56.5973 89.3205 56.5972 92.4313 54.6595C91.264 52.854 90.6832 52.0663 89.907 51.29C87.1872 48.254 83.5648 46.7015 77.6825 46.8338L74.6465 47.219C71.7313 47.932 68.9483 49.4902 67.2693 51.5545C62.353 57.1205 63.7733 66.8207 69.7245 70.84C75.6068 75.2387 84.2202 76.2047 85.3185 80.3447C86.3535 85.3932 81.5695 87.009 76.8373 86.4283C73.347 85.6463 71.4035 83.904 69.2702 80.6667L61.3813 85.1977C62.284 87.262 63.319 88.1705 64.8715 89.9818C72.3752 97.5488 91.1375 97.1635 94.5012 85.6463C94.622 85.261 95.5362 82.6103 94.8232 78.5335L95.0187 78.8153V78.8153ZM56.281 47.5697H46.5865C46.5865 55.9245 46.5463 64.2332 46.5463 72.6052C46.5463 77.9182 46.8165 82.7942 45.9483 84.295C44.528 87.2677 40.8537 86.8882 39.192 86.3592C37.4842 85.5197 36.616 84.3525 35.6097 82.6735C35.3395 82.225 35.1382 81.834 35.0635 81.834L27.1975 86.687C28.5143 89.4068 30.4347 91.7412 32.913 93.2247C36.5987 95.427 41.5495 96.14 46.736 94.9785C50.117 94.001 53.0323 91.9942 54.5445 88.8892C56.7525 84.8815 56.281 79.9595 56.2637 74.4625C56.3097 65.6017 56.2637 56.7352 56.2637 47.8112L56.281 47.5697Z" fill="#053651"/>
</svg>
