<svg width="102" height="116" viewBox="0 0 102 116" fill="none" xmlns="http://www.w3.org/2000/svg">
<path d="M50.9999 115.414C49.4187 115.414 47.9409 114.988 46.5609 114.252L32.5367 105.926C30.4379 104.759 31.4902 104.333 32.1227 104.121C34.9747 103.172 35.5037 102.965 38.4534 101.286C38.7754 101.073 39.1952 101.171 39.5172 101.384L50.2697 107.824C50.6952 108.031 51.2242 108.031 51.5404 107.824L93.6247 83.4609C94.0502 83.2539 94.2572 82.8284 94.2572 82.2994V33.6659C94.2572 33.1427 94.0502 32.7172 93.6247 32.5102L51.5404 8.25091C51.1207 8.03816 50.5917 8.03816 50.2697 8.25091L8.17391 32.5044C7.75416 32.7114 7.54141 33.2462 7.54141 33.6602V82.2879C7.54141 82.7077 7.75416 83.2424 8.17391 83.4494L19.6739 90.1022C25.8954 93.2532 29.8054 89.5559 29.8054 85.8759V37.8864C29.8054 37.2539 30.3287 36.6157 31.0704 36.6157H36.4524C37.0734 36.6157 37.7174 37.1447 37.7174 37.8864V85.8817C37.7174 94.2134 33.1864 99.0722 25.2744 99.0722C22.8479 99.0722 20.9504 99.0722 15.5684 96.4272L4.49966 90.1079C3.15104 89.3239 2.03182 88.1997 1.25385 86.8476C0.475885 85.4955 0.0664284 83.9629 0.0664062 82.4029V33.7694C0.0664062 30.6069 1.75116 27.6514 4.49966 26.0702L46.5667 1.70741C47.9323 0.977076 49.457 0.594971 51.0057 0.594971C52.5543 0.594971 54.079 0.977076 55.4447 1.70741L97.5174 26.0702C100.272 27.6457 101.951 30.6069 101.951 33.7694V82.4029C101.951 85.5597 100.266 88.5152 97.5174 90.1079L55.4447 114.465C54.0589 115.097 52.4777 115.414 50.9999 115.414V115.414ZM63.9719 81.9717C45.5144 81.9717 41.7194 73.5307 41.7194 66.3662C41.7194 65.7337 42.2484 65.0954 42.9844 65.0954H48.4699C49.1024 65.0954 49.6257 65.5152 49.6257 66.1534C50.4709 71.7367 52.8917 74.4852 64.0812 74.4852C72.9362 74.4852 76.7427 72.4727 76.7427 67.7289C76.7427 64.9862 75.6789 62.9852 61.8674 61.6167C50.3732 60.4667 43.2029 57.9194 43.2029 48.7482C43.2029 40.2094 50.3732 35.1437 62.4022 35.1437C75.8974 35.1437 82.5444 39.7954 83.3839 49.9097C83.3738 50.251 83.2617 50.5815 83.0619 50.8584C82.8492 51.0654 82.5387 51.2782 82.2224 51.2782H76.7427C76.4718 51.2724 76.2106 51.1766 76.0002 51.0058C75.7899 50.835 75.6424 50.5991 75.5812 50.3352C74.3104 44.5162 71.0444 42.6302 62.4022 42.6302C52.6904 42.6302 51.5289 46.0054 51.5289 48.5354C51.5289 51.5887 52.8917 52.5374 65.9844 54.2279C78.9564 55.9127 85.0744 58.3392 85.0744 67.4184C84.9594 76.7047 77.3752 81.9717 63.9719 81.9717V81.9717Z" fill="#053651"/>
</svg>
