<svg width="116" height="103" viewBox="0 0 116 103" fill="none" xmlns="http://www.w3.org/2000/svg">
<path d="M57.5577 61.474C63.2262 61.474 67.8214 56.8788 67.8214 51.2103C67.8214 45.5418 63.2262 40.9465 57.5577 40.9465C51.8892 40.9465 47.2939 45.5418 47.2939 51.2103C47.2939 56.8788 51.8892 61.474 57.5577 61.474Z" fill="#053651"/>
<path d="M28.819 71.6171L26.5477 71.0363C9.67725 66.7756 0 59.5306 0 51.1873C0 42.8383 9.683 35.5991 26.5477 31.3383L28.819 30.7633L29.4573 33.0116C31.1624 38.8978 33.347 44.6344 35.9892 50.1638L36.478 51.1873L35.9892 52.2108C33.3442 57.7481 31.1535 63.4866 29.4573 69.3746L28.819 71.6171V71.6171ZM25.5013 36.5708C12.6845 40.1818 4.81275 45.6903 4.81275 51.1873C4.81275 56.6728 12.6788 62.1871 25.5013 65.7923C27.071 60.8013 28.9685 55.9196 31.165 51.1873C28.9526 46.4472 27.0604 41.5641 25.5013 36.5708V36.5708ZM86.2902 71.6171L85.6577 69.3631C83.9481 63.4757 81.7616 57.7373 79.12 52.2051L78.6313 51.1873L79.12 50.1581C81.765 44.6323 83.9442 38.8881 85.6577 33.0001L86.2902 30.7576L88.5615 31.3326C105.438 35.5933 115.109 42.8326 115.109 51.1873C115.109 59.5363 105.432 66.7756 88.5615 71.0363L86.2902 71.6171V71.6171ZM83.9328 51.1873C86.2328 56.1668 88.1475 61.0658 89.608 65.7923C102.43 62.1871 110.302 56.6728 110.302 51.1873C110.302 45.6903 102.436 40.1876 89.608 36.5708C88.0398 41.5625 86.144 46.4453 83.9328 51.1873V51.1873Z" fill="#053651"/>
<path d="M25.4669 36.5478L24.8344 34.3053C20.0849 17.5843 21.5224 5.60701 28.7847 1.43251C35.8859 -2.67874 47.3112 2.18001 59.2769 14.4563L60.9099 16.1353L59.2769 17.8085C55.027 22.2285 51.1426 26.9859 47.6619 32.034L47.0122 32.9655L45.8852 33.0575C39.7648 33.5382 33.6938 34.517 27.7324 35.9843L25.4669 36.5478V36.5478ZM34.5634 4.756C33.2754 4.756 32.1369 5.03776 31.1767 5.58976C26.4157 8.33251 25.5762 17.8833 28.8537 30.7748C33.9769 29.642 39.1462 28.8313 44.3557 28.377C47.3716 24.0993 50.6618 20.0217 54.2054 16.1698C46.7132 8.88451 39.6407 4.756 34.5634 4.756V4.756ZM80.5462 102.414C73.7152 102.414 64.9407 97.262 55.8327 87.9125L54.2054 86.2393L55.8327 84.5718C60.0833 80.1447 63.9695 75.3816 67.4534 70.329L68.0974 69.409L69.2129 69.2998C75.3355 68.8276 81.4088 67.8525 87.3714 66.3845L89.6427 65.8095L90.2809 68.0578C95.0074 84.7673 93.5757 96.7618 86.3249 100.936C84.5645 101.934 82.5696 102.444 80.5462 102.414V102.414ZM60.9099 86.199C68.3964 93.4843 75.4747 97.6185 80.5462 97.6185C81.8399 97.6185 82.9784 97.331 83.9329 96.7847C88.6997 94.0363 89.5449 84.4683 86.2559 71.5768C81.1384 72.7153 75.9634 73.5318 70.7424 73.986C67.7393 78.2704 64.4545 82.3504 60.9099 86.199V86.199Z" fill="#053651"/>
<path d="M89.6425 36.5478L87.3713 35.9786C81.4089 34.5068 75.3356 33.5279 69.2128 33.0518L68.0973 32.9541L67.4533 32.0226C63.9742 26.9717 60.0877 22.214 55.8325 17.7971L54.2053 16.1238L55.8325 14.4563C67.7925 2.18584 79.212 -2.67291 86.3248 1.43259C93.5813 5.61284 95.0245 17.5901 90.2808 34.3053L89.6425 36.5478ZM70.7423 28.3771C76.2278 28.8658 81.4258 29.6881 86.2558 30.7748C89.539 17.8833 88.6995 8.33259 83.9328 5.58409C79.1948 2.84134 70.2765 7.03884 60.9098 16.1698C64.4518 20.0223 67.7408 24.0933 70.7423 28.3771ZM34.5633 102.414C32.54 102.443 30.5455 101.933 28.7845 100.936C21.5223 96.7618 20.0848 84.7731 24.8285 68.0578L25.4495 65.8096L27.7208 66.3846C33.2638 67.7818 39.3703 68.7651 45.8793 69.2998L46.9948 69.4091L47.6445 70.3291C51.1175 75.3776 55.0045 80.1443 59.2595 84.5718L60.8925 86.2393L59.2595 87.9126C50.1573 97.2678 41.3828 102.414 34.5633 102.414V102.414ZM28.8535 71.5826C25.576 84.4741 26.4155 94.0421 31.1765 96.7906C35.9203 99.4931 44.8098 95.3243 54.2053 86.1991C50.663 82.346 47.3729 78.2684 44.3555 73.9918C39.1408 73.5307 33.9622 72.7258 28.8535 71.5826V71.5826Z" fill="#053651"/>
<path d="M57.5575 74.6014C53.6073 74.6014 49.5535 74.4346 45.4825 74.0954L44.3555 73.9976L43.7058 73.0661C41.4101 69.765 39.2502 66.3716 37.2313 62.8944C35.2273 59.4077 33.3648 55.8418 31.648 52.2051L31.165 51.1874L31.648 50.1581C33.3673 46.5241 35.2245 42.9591 37.2313 39.4746C39.2265 36.0476 41.4058 32.6206 43.7058 29.2971L44.3555 28.3771L45.4825 28.2736C53.5146 27.6009 61.5889 27.6009 69.621 28.2736L70.7365 28.3829L71.3863 29.3029C75.9851 35.9082 80.0242 42.8861 83.4613 50.1639L83.9385 51.1931L83.4613 52.2109C80.0337 59.4936 75.9942 66.4723 71.3863 73.0719L70.7365 74.0034L69.621 74.1011C65.5615 74.4289 61.502 74.6014 57.5575 74.6014V74.6014ZM47.012 69.4034C54.1133 69.9381 61.0018 69.9381 68.0973 69.4034C72.0584 63.6028 75.5796 57.5138 78.6313 51.1874C75.5904 44.8552 72.0687 38.7654 68.0973 32.9714C61.0793 32.4309 54.0301 32.4309 47.012 32.9714C43.0373 38.7633 39.5155 44.8534 36.478 51.1874C39.5363 57.5103 43.0572 63.5988 47.012 69.4034V69.4034Z" fill="#053651"/>
</svg>
