<svg width="180" height="161" viewBox="0 0 180 161" fill="none" xmlns="http://www.w3.org/2000/svg">
<path d="M39.78 61.83L90 160.02L140.22 61.83H39.78V61.83ZM35.1 9.09L0 56.16H32.58L35.1 9.09ZM90 3.78L41.67 56.16H138.33L90 3.78ZM0.36 61.83L82.17 157.05L33.48 61.83H0.36ZM85.77 0H84.42L40.86 4.59C40.9025 4.73699 40.9025 4.89301 40.86 5.04L38.43 51.39L85.77 0ZM97.83 157.05L179.64 61.83H146.52L97.83 157.05V157.05ZM139.05 5.22C139.008 5.07301 139.008 4.91699 139.05 4.77L103.05 0.989999L94.05 0L141.39 51.39L139.05 5.22ZM144.9 9.09L147.42 56.16H180L160.02 29.34L144.9 9.09V9.09Z" fill="#053651"/>
</svg>
