<?xml version="1.0" standalone="no"?>
<!DOCTYPE svg PUBLIC "-//W3C//DTD SVG 20010904//EN"
 "http://www.w3.org/TR/2001/REC-SVG-20010904/DTD/svg10.dtd">
<svg version="1.0" xmlns="http://www.w3.org/2000/svg"
 width="117.000000pt" height="117.000000pt" viewBox="0 0 117.000000 117.000000"
 preserveAspectRatio="xMidYMid meet">
<metadata>
Created by potrace 1.14, written by Peter Selinger 2001-2017
</metadata>
<g transform="translate(0.000000,117.000000) scale(0.100000,-0.100000)"
fill="#000000" stroke="none">
<path d="M30 585 l0 -584 103 2 102 2 3 498 2 498 52 -3 52 -3 1 -205 0 -205
102 -1 c64 0 104 4 106 10 2 6 3 105 2 221 -2 227 -5 244 -61 300 -48 49 -81
55 -280 55 l-184 0 0 -585z"/>
<path d="M756 1163 c-43 -11 -96 -57 -118 -102 -22 -46 -22 -48 -23 -553 l-1
-508 263 0 263 0 0 95 0 95 -155 0 -155 0 0 405 0 405 50 0 50 0 0 -353 0
-353 105 0 105 1 0 436 0 437 -182 0 c-101 0 -192 -2 -202 -5z"/>
</g>
</svg>
